<?xml version="1.0" encoding="UTF-8" standalone="no"?>
<!-- Created with Inkscape (http://www.inkscape.org/) -->

<svg
   xmlns:dc="http://purl.org/dc/elements/1.1/"
   xmlns:cc="http://creativecommons.org/ns#"
   xmlns:rdf="http://www.w3.org/1999/02/22-rdf-syntax-ns#"
   xmlns:svg="http://www.w3.org/2000/svg"
   xmlns="http://www.w3.org/2000/svg"
   xmlns:sodipodi="http://sodipodi.sourceforge.net/DTD/sodipodi-0.dtd"
   xmlns:inkscape="http://www.inkscape.org/namespaces/inkscape"
   width="416.40421"
   height="173.39804"
   id="svg3756"
   version="1.1"
   inkscape:version="0.48.1 "
   sodipodi:docname="al barid bank.svg">
  <defs
     id="defs3758">
    <clipPath
       clipPathUnits="userSpaceOnUse"
       id="clipPath502">
      <path
         inkscape:connector-curvature="0"
         d="m 150.126,14.719 115.914,0 0,51.881 -115.914,0 0,-51.881 z"
         id="path504" />
    </clipPath>
  </defs>
  <sodipodi:namedview
     id="base"
     pagecolor="#ffffff"
     bordercolor="#666666"
     borderopacity="1.0"
     inkscape:pageopacity="0.0"
     inkscape:pageshadow="2"
     inkscape:zoom="1.5400566"
     inkscape:cx="176.19359"
     inkscape:cy="111.41646"
     inkscape:document-units="px"
     inkscape:current-layer="layer1"
     showgrid="false"
     fit-margin-top="0"
     fit-margin-left="0"
     fit-margin-right="0"
     fit-margin-bottom="0"
     inkscape:window-width="1366"
     inkscape:window-height="706"
     inkscape:window-x="-8"
     inkscape:window-y="-8"
     inkscape:window-maximized="1" />
  <metadata
     id="metadata3761">
    <rdf:RDF>
      <cc:Work
         rdf:about="">
        <dc:format>image/svg+xml</dc:format>
        <dc:type
           rdf:resource="http://purl.org/dc/dcmitype/StillImage" />
        <dc:title />
      </cc:Work>
    </rdf:RDF>
  </metadata>
  <g
     inkscape:label="Calque 1"
     inkscape:groupmode="layer"
     id="layer1"
     transform="translate(-198.80641,-470.3806)">
    <g
       id="g3053">
      <path
         inkscape:connector-curvature="0"
         id="path14"
         style="fill:#806b64;fill-opacity:1;fill-rule:nonzero;stroke:none"
         d="m 198.80641,643.77864 416.40422,0 0,-173.39804 -416.40422,0 0,173.39804 z" />
      <g
         id="g498"
         transform="matrix(2.968907,0,0,-2.968907,-214.36961,679.78153)">
        <g
           clip-path="url(#clipPath502)"
           id="g500">
          <g
             transform="translate(154.0958,16.5182)"
             id="g506">
            <path
               id="path508"
               style="fill:#ffffff;fill-opacity:1;fill-rule:evenodd;stroke:none"
               d="m 0,0 0.15,-0.536 0.363,0 0,2.27 -1.89,0 0,-0.483 1.377,0 C 0.008,1.054 -0.018,0.869 -0.078,0.695 -0.14,0.526 -0.23,0.377 -0.351,0.249 -0.468,0.123 -0.613,0.025 -0.786,-0.048 c -0.173,-0.073 -0.372,-0.109 -0.598,-0.109 -0.241,0 -0.454,0.047 -0.64,0.14 -0.181,0.097 -0.334,0.223 -0.46,0.381 -0.124,0.16 -0.219,0.344 -0.284,0.548 -0.064,0.21 -0.096,0.427 -0.096,0.653 0,0.23 0.029,0.454 0.085,0.67 0.056,0.222 0.143,0.418 0.26,0.587 0.12,0.173 0.273,0.312 0.459,0.417 0.189,0.105 0.414,0.157 0.676,0.157 0.162,0 0.312,-0.021 0.453,-0.062 C -0.786,3.298 -0.658,3.243 -0.545,3.167 -0.432,3.09 -0.337,2.99 -0.26,2.87 -0.184,2.753 -0.131,2.613 -0.103,2.447 l 0.574,0 C 0.43,2.702 0.354,2.916 0.241,3.093 0.132,3.275 -0.005,3.424 -0.17,3.54 -0.331,3.658 -0.516,3.742 -0.725,3.794 -0.931,3.85 -1.15,3.879 -1.384,3.879 -1.726,3.879 -2.026,3.815 -2.284,3.686 -2.538,3.56 -2.751,3.392 -2.925,3.178 -3.093,2.965 -3.222,2.715 -3.311,2.429 -3.396,2.147 -3.438,1.849 -3.438,1.535 c 0,-0.282 0.047,-0.553 0.14,-0.815 0.092,-0.263 0.226,-0.494 0.404,-0.695 0.177,-0.201 0.392,-0.363 0.646,-0.483 0.254,-0.117 0.542,-0.175 0.864,-0.175 0.254,0 0.506,0.048 0.755,0.144 0.25,0.1 0.459,0.264 0.629,0.489"
               inkscape:connector-curvature="0" />
          </g>
          <g
             transform="translate(157.5204,19.1048)"
             id="g510">
            <path
               id="path512"
               style="fill:#ffffff;fill-opacity:1;fill-rule:evenodd;stroke:none"
               d="m 0,0 0,-3.123 0.513,0 0,1.389 c 0,0.201 0.021,0.379 0.061,0.532 0.04,0.156 0.104,0.29 0.193,0.399 0.088,0.108 0.205,0.19 0.35,0.246 0.146,0.056 0.32,0.086 0.527,0.086 l 0,0.543 C 1.365,0.08 1.135,0.023 0.955,-0.097 0.773,-0.218 0.62,-0.406 0.496,-0.659 l -0.013,0 L 0.483,0 0,0 z"
               inkscape:connector-curvature="0" />
          </g>
          <g
             transform="translate(161.4406,17.5398)"
             id="g514">
            <path
               id="path516"
               style="fill:#ffffff;fill-opacity:1;fill-rule:evenodd;stroke:none"
               d="m 0,0 c 0,-0.23 0.033,-0.443 0.096,-0.641 0.065,-0.197 0.163,-0.37 0.291,-0.518 0.128,-0.146 0.287,-0.261 0.476,-0.345 0.19,-0.08 0.407,-0.121 0.653,-0.121 0.25,0 0.468,0.041 0.652,0.121 0.189,0.084 0.349,0.199 0.478,0.345 0.129,0.148 0.225,0.321 0.289,0.518 C 3,-0.443 3.033,-0.23 3.033,0 3.033,0.23 3,0.443 2.935,0.639 2.871,0.842 2.775,1.015 2.646,1.159 2.517,1.309 2.357,1.426 2.168,1.51 1.984,1.595 1.766,1.637 1.516,1.637 1.27,1.637 1.053,1.595 0.863,1.51 0.674,1.426 0.515,1.309 0.387,1.159 0.259,1.015 0.161,0.842 0.096,0.639 0.033,0.443 0,0.23 0,0 m 0.543,0 c 0,0.189 0.025,0.356 0.073,0.502 0.052,0.148 0.123,0.273 0.211,0.374 0.089,0.1 0.192,0.177 0.309,0.23 0.121,0.051 0.247,0.078 0.38,0.078 0.133,0 0.258,-0.027 0.375,-0.078 C 2.011,1.053 2.116,0.976 2.205,0.876 2.294,0.775 2.361,0.65 2.41,0.502 2.463,0.356 2.489,0.189 2.489,0 2.489,-0.189 2.463,-0.359 2.41,-0.507 2.361,-0.652 2.294,-0.775 2.205,-0.876 2.116,-0.972 2.011,-1.047 1.891,-1.1 1.774,-1.152 1.649,-1.179 1.516,-1.179 1.383,-1.179 1.257,-1.152 1.136,-1.1 1.019,-1.047 0.916,-0.972 0.827,-0.876 0.739,-0.775 0.668,-0.652 0.616,-0.507 0.568,-0.359 0.543,-0.189 0.543,0"
               inkscape:connector-curvature="0" />
          </g>
          <g
             transform="translate(169.8305,15.9819)"
             id="g518">
            <path
               id="path520"
               style="fill:#ffffff;fill-opacity:1;fill-rule:evenodd;stroke:none"
               d="m 0,0 0,3.123 -0.513,0 0,-1.764 c 0,-0.142 -0.019,-0.272 -0.06,-0.393 C -0.609,0.85 -0.666,0.747 -0.742,0.658 -0.819,0.569 -0.915,0.502 -1.032,0.452 -1.145,0.404 -1.28,0.379 -1.437,0.379 c -0.198,0 -0.352,0.057 -0.465,0.17 -0.113,0.113 -0.17,0.266 -0.17,0.459 l 0,2.115 -0.513,0 0,-2.055 c 0,-0.168 0.017,-0.323 0.048,-0.465 0.037,-0.136 0.097,-0.255 0.182,-0.356 0.084,-0.101 0.195,-0.179 0.332,-0.235 0.136,-0.053 0.308,-0.08 0.513,-0.08 0.23,0 0.429,0.046 0.598,0.134 0.17,0.092 0.309,0.235 0.418,0.428 l 0.011,0 L -0.483,0 0,0 z"
               inkscape:connector-curvature="0" />
          </g>
          <g
             transform="translate(175.2078,17.5698)"
             id="g522">
            <path
               id="path524"
               style="fill:#ffffff;fill-opacity:1;fill-rule:evenodd;stroke:none"
               d="m 0,0 c 0,-0.152 -0.016,-0.302 -0.049,-0.447 -0.033,-0.145 -0.084,-0.274 -0.157,-0.386 -0.073,-0.113 -0.169,-0.204 -0.29,-0.272 -0.117,-0.069 -0.263,-0.104 -0.441,-0.104 -0.176,0 -0.328,0.033 -0.453,0.098 -0.124,0.067 -0.228,0.157 -0.309,0.265 -0.076,0.109 -0.132,0.234 -0.168,0.375 -0.037,0.144 -0.054,0.294 -0.054,0.447 0,0.145 0.015,0.288 0.048,0.428 0.036,0.142 0.092,0.266 0.169,0.375 0.077,0.113 0.175,0.203 0.296,0.272 0.12,0.069 0.268,0.104 0.441,0.104 0.165,0 0.307,-0.033 0.43,-0.098 0.124,-0.064 0.224,-0.15 0.301,-0.26 C -0.155,0.689 -0.097,0.564 -0.061,0.423 -0.021,0.286 0,0.146 0,0 m -2.416,1.535 0,-4.313 0.512,0 0,1.606 0.013,0 c 0.056,-0.092 0.125,-0.171 0.206,-0.235 0.084,-0.061 0.173,-0.109 0.265,-0.146 0.092,-0.035 0.184,-0.061 0.278,-0.078 0.096,-0.015 0.183,-0.024 0.26,-0.024 0.237,0 0.444,0.043 0.622,0.127 0.182,0.084 0.329,0.199 0.446,0.344 0.122,0.15 0.21,0.322 0.266,0.519 0.061,0.198 0.091,0.407 0.091,0.629 0,0.221 -0.03,0.43 -0.091,0.628 C 0.392,0.789 0.301,0.963 0.18,1.111 0.064,1.264 -0.086,1.386 -0.266,1.474 -0.444,1.563 -0.652,1.607 -0.895,1.607 -1.111,1.607 -1.312,1.566 -1.492,1.486 -1.674,1.409 -1.806,1.285 -1.891,1.111 l -0.013,0 0,0.424 -0.512,0 z"
               inkscape:connector-curvature="0" />
          </g>
          <g
             transform="translate(181.1872,16.9716)"
             id="g526">
            <path
               id="path528"
               style="fill:#ffffff;fill-opacity:1;fill-rule:evenodd;stroke:none"
               d="m 0,0 -0.507,0 c -0.045,-0.204 -0.136,-0.358 -0.278,-0.459 -0.137,-0.101 -0.314,-0.152 -0.532,-0.152 -0.168,0 -0.316,0.029 -0.44,0.085 -0.126,0.057 -0.228,0.132 -0.308,0.224 -0.082,0.098 -0.14,0.205 -0.176,0.327 -0.036,0.125 -0.052,0.256 -0.048,0.392 l 2.338,0 c 0.008,0.19 -0.01,0.388 -0.055,0.598 -0.04,0.209 -0.117,0.403 -0.229,0.58 C -0.344,1.772 -0.49,1.917 -0.676,2.03 -0.857,2.147 -1.087,2.205 -1.365,2.205 -1.578,2.205 -1.776,2.164 -1.957,2.084 -2.134,2.004 -2.289,1.891 -2.422,1.746 -2.551,1.601 -2.652,1.429 -2.724,1.232 -2.797,1.035 -2.832,0.818 -2.832,0.58 -2.824,0.342 -2.79,0.123 -2.73,-0.078 c 0.064,-0.202 0.158,-0.375 0.284,-0.52 0.124,-0.145 0.278,-0.257 0.459,-0.338 0.185,-0.08 0.402,-0.121 0.653,-0.121 0.354,0 0.647,0.089 0.882,0.266 C -0.219,-0.614 -0.068,-0.35 0,0 m -0.496,0.87 -1.793,0 c 0.008,0.121 0.035,0.234 0.078,0.338 0.045,0.11 0.104,0.204 0.181,0.284 0.077,0.08 0.168,0.144 0.273,0.188 0.108,0.048 0.23,0.073 0.361,0.073 0.13,0 0.246,-0.025 0.351,-0.073 0.109,-0.044 0.201,-0.108 0.278,-0.188 0.08,-0.076 0.143,-0.17 0.187,-0.277 0.049,-0.109 0.076,-0.224 0.084,-0.345"
               inkscape:connector-curvature="0" />
          </g>
          <g
             transform="translate(188.442,16.4646)"
             id="g530">
            <path
               id="path532"
               style="fill:#ffffff;fill-opacity:1;fill-rule:evenodd;stroke:none"
               d="m 0,0 0,1.492 1.312,0 c 0.12,0 0.237,-0.012 0.35,-0.036 C 1.775,1.435 1.873,1.397 1.957,1.341 2.047,1.289 2.117,1.216 2.169,1.123 2.221,1.031 2.247,0.914 2.247,0.773 2.247,0.532 2.175,0.342 2.03,0.204 1.89,0.068 1.691,0 1.438,0 L 0,0 z m -0.574,3.83 0,-4.313 2.084,0 c 0.214,0 0.401,0.034 0.562,0.102 0.166,0.073 0.302,0.165 0.411,0.278 0.113,0.117 0.197,0.251 0.254,0.398 0.056,0.15 0.084,0.303 0.084,0.459 0,0.267 -0.07,0.493 -0.211,0.677 C 2.469,1.617 2.265,1.737 2,1.794 L 2,1.806 C 2.205,1.887 2.362,2.009 2.471,2.174 2.584,2.344 2.64,2.543 2.64,2.772 2.64,2.99 2.59,3.172 2.489,3.322 2.393,3.471 2.274,3.588 2.133,3.673 2.068,3.713 1.99,3.743 1.897,3.763 1.808,3.784 1.712,3.797 1.607,3.805 1.502,3.818 1.396,3.823 1.287,3.823 1.183,3.827 1.084,3.83 0.991,3.83 l -1.565,0 z M 0,1.975 l 0,1.371 1.148,0 C 1.272,3.346 1.39,3.338 1.498,3.322 1.611,3.31 1.71,3.28 1.795,3.231 1.879,3.184 1.945,3.115 1.994,3.027 2.043,2.938 2.066,2.817 2.066,2.664 2.066,2.435 1.994,2.261 1.849,2.145 1.708,2.032 1.475,1.975 1.148,1.975 L 0,1.975 z"
               inkscape:connector-curvature="0" />
          </g>
          <g
             transform="translate(196.0233,17.594)"
             id="g534">
            <path
               id="path536"
               style="fill:#ffffff;fill-opacity:1;fill-rule:evenodd;stroke:none"
               d="M 0,0 0,-0.526 C 0,-0.598 -0.018,-0.676 -0.055,-0.761 -0.09,-0.842 -0.147,-0.918 -0.224,-0.991 -0.3,-1.059 -0.399,-1.118 -0.52,-1.166 -0.64,-1.21 -0.786,-1.233 -0.955,-1.233 c -0.076,0 -0.153,0.009 -0.229,0.025 -0.072,0.016 -0.137,0.042 -0.193,0.079 -0.052,0.036 -0.098,0.082 -0.133,0.138 -0.032,0.06 -0.049,0.134 -0.049,0.217 0,0.13 0.028,0.23 0.084,0.303 0.061,0.077 0.138,0.134 0.23,0.175 0.093,0.039 0.198,0.069 0.315,0.085 0.117,0.02 0.232,0.036 0.345,0.048 0.116,0.016 0.227,0.034 0.331,0.055 C -0.15,-0.085 -0.065,-0.048 0,0 m 0.834,-1.601 0,0.399 c -0.061,-0.02 -0.113,-0.031 -0.157,-0.031 -0.081,0 -0.129,0.029 -0.145,0.085 -0.013,0.057 -0.019,0.145 -0.019,0.266 l 0,1.606 C 0.513,0.906 0.479,1.053 0.411,1.166 0.342,1.278 0.251,1.365 0.14,1.426 0.027,1.49 -0.101,1.532 -0.241,1.553 -0.379,1.572 -0.518,1.583 -0.658,1.583 -0.831,1.583 -0.997,1.565 -1.154,1.528 -1.311,1.492 -1.45,1.431 -1.571,1.347 -1.691,1.266 -1.788,1.159 -1.861,1.027 -1.932,0.894 -1.973,0.731 -1.981,0.538 l 0.514,0 c 0.011,0.23 0.09,0.384 0.235,0.464 0.145,0.085 0.326,0.128 0.543,0.128 0.08,0 0.161,-0.006 0.242,-0.019 C -0.363,1.1 -0.288,1.075 -0.224,1.04 -0.155,1.002 -0.101,0.95 -0.061,0.883 -0.016,0.814 0.006,0.722 0.006,0.61 0.006,0.514 -0.022,0.439 -0.078,0.387 -0.135,0.338 -0.212,0.3 -0.308,0.272 -0.405,0.248 -0.518,0.227 -0.647,0.212 -0.771,0.199 -0.904,0.179 -1.045,0.15 -1.178,0.126 -1.309,0.097 -1.438,0.061 -1.563,0.024 -1.675,-0.031 -1.776,-0.103 c -0.096,-0.068 -0.175,-0.158 -0.236,-0.272 -0.06,-0.112 -0.09,-0.257 -0.09,-0.435 0,-0.157 0.026,-0.292 0.078,-0.403 0.057,-0.109 0.132,-0.2 0.224,-0.273 0.096,-0.068 0.207,-0.117 0.333,-0.145 0.124,-0.032 0.256,-0.049 0.397,-0.049 0.218,0 0.42,0.037 0.605,0.11 0.189,0.077 0.354,0.199 0.496,0.368 0,-0.169 0.038,-0.291 0.115,-0.368 0.08,-0.073 0.187,-0.11 0.319,-0.11 0.157,0 0.28,0.027 0.369,0.079"
               inkscape:connector-curvature="0" />
          </g>
          <g
             transform="translate(199.4843,19.1048)"
             id="g538">
            <path
               id="path540"
               style="fill:#ffffff;fill-opacity:1;fill-rule:evenodd;stroke:none"
               d="m 0,0 0,-3.123 0.513,0 0,1.389 c 0,0.201 0.021,0.379 0.061,0.532 0.04,0.156 0.105,0.29 0.193,0.399 0.089,0.108 0.205,0.19 0.351,0.246 0.145,0.056 0.321,0.086 0.526,0.086 l 0,0.543 C 1.366,0.08 1.136,0.023 0.955,-0.097 0.774,-0.218 0.62,-0.406 0.496,-0.659 l -0.012,0 L 0.484,0 0,0 z"
               inkscape:connector-curvature="0" />
          </g>
          <path
             id="path542"
             style="fill:#ffffff;fill-opacity:1;fill-rule:evenodd;stroke:none"
             d="m 203.713,15.982 0.514,0 0,3.123 -0.514,0 0,-3.123 z m 0.514,4.313 -0.514,0 0,-0.628 0.514,0 0,0.628 z"
             inkscape:connector-curvature="0" />
          <g
             transform="translate(209.9832,15.9819)"
             id="g544">
            <path
               id="path546"
               style="fill:#ffffff;fill-opacity:1;fill-rule:evenodd;stroke:none"
               d="m 0,0 0,4.313 -0.513,0 0,-1.607 -0.013,0 C -0.583,2.798 -0.652,2.874 -0.737,2.935 -0.818,3 -0.904,3.05 -0.996,3.087 -1.089,3.127 -1.182,3.154 -1.275,3.17 -1.367,3.187 -1.454,3.195 -1.534,3.195 -1.772,3.195 -1.981,3.15 -2.163,3.061 -2.339,2.978 -2.489,2.861 -2.609,2.711 -2.727,2.566 -2.815,2.396 -2.875,2.197 -2.931,2.001 -2.96,1.791 -2.96,1.569 c 0,-0.221 0.03,-0.43 0.091,-0.627 0.06,-0.197 0.149,-0.371 0.266,-0.52 0.12,-0.149 0.27,-0.268 0.446,-0.356 0.182,-0.088 0.394,-0.134 0.635,-0.134 0.218,0 0.417,0.039 0.597,0.115 0.182,0.076 0.315,0.202 0.399,0.375 l 0.013,0 L -0.513,0 0,0 z m -2.416,1.533 c 0,0.153 0.015,0.303 0.048,0.448 0.033,0.145 0.084,0.273 0.157,0.386 0.073,0.113 0.169,0.203 0.29,0.272 0.121,0.068 0.267,0.103 0.441,0.103 0.178,0 0.329,-0.035 0.453,-0.103 C -0.902,2.575 -0.801,2.488 -0.724,2.38 -0.644,2.271 -0.586,2.143 -0.55,1.999 -0.513,1.859 -0.496,1.711 -0.496,1.558 -0.496,1.413 -0.513,1.27 -0.55,1.129 -0.583,0.988 -0.637,0.861 -0.713,0.748 -0.79,0.639 -0.888,0.551 -1.009,0.483 -1.13,0.414 -1.277,0.379 -1.45,0.379 c -0.166,0 -0.309,0.033 -0.435,0.098 -0.12,0.064 -0.221,0.151 -0.303,0.259 -0.075,0.11 -0.134,0.232 -0.174,0.368 -0.037,0.142 -0.054,0.285 -0.054,0.429"
               inkscape:connector-curvature="0" />
          </g>
          <g
             transform="translate(218.0473,20.2948)"
             id="g548">
            <path
               id="path550"
               style="fill:#ffffff;fill-opacity:1;fill-rule:evenodd;stroke:none"
               d="m 0,0 -1.68,-4.313 0.586,0 0.483,1.298 1.826,0 0.47,-1.298 0.634,0 L 0.635,0 0,0 z m -0.428,-2.531 0.73,2.011 0.011,0 0.72,-2.011 -1.461,0 z"
               inkscape:connector-curvature="0" />
          </g>
          <path
             id="path552"
             style="fill:#ffffff;fill-opacity:1;fill-rule:evenodd;stroke:none"
             d="m 222.905,15.982 0.513,0 0,4.313 -0.513,0 0,-4.313 z"
             inkscape:connector-curvature="0" />
          <g
             transform="translate(230.328,20.2948)"
             id="g554">
            <path
               id="path556"
               style="fill:#ffffff;fill-opacity:1;fill-rule:evenodd;stroke:none"
               d="m 0,0 0,-4.313 0.543,0 0,3.588 0.012,0 1.347,-3.588 0.489,0 1.348,3.588 0.013,0 0,-3.588 0.543,0 L 4.295,0 3.509,0 2.145,-3.626 0.784,0 0,0 z"
               inkscape:connector-curvature="0" />
          </g>
          <g
             transform="translate(239.5936,17.594)"
             id="g558">
            <path
               id="path560"
               style="fill:#ffffff;fill-opacity:1;fill-rule:evenodd;stroke:none"
               d="m 0,0 0,-0.526 c 0,-0.072 -0.017,-0.15 -0.054,-0.235 -0.036,-0.081 -0.092,-0.157 -0.17,-0.23 -0.074,-0.068 -0.174,-0.127 -0.295,-0.175 -0.12,-0.044 -0.265,-0.067 -0.436,-0.067 -0.076,0 -0.153,0.009 -0.229,0.025 -0.071,0.016 -0.136,0.042 -0.193,0.079 -0.052,0.036 -0.096,0.082 -0.133,0.138 -0.032,0.06 -0.047,0.134 -0.047,0.217 0,0.13 0.026,0.23 0.084,0.303 0.061,0.077 0.136,0.134 0.23,0.175 0.091,0.039 0.196,0.069 0.313,0.085 0.117,0.02 0.232,0.036 0.345,0.048 0.116,0.016 0.227,0.034 0.332,0.055 C -0.15,-0.085 -0.063,-0.048 0,0 m 0.834,-1.601 0,0.399 c -0.061,-0.02 -0.113,-0.031 -0.157,-0.031 -0.08,0 -0.128,0.029 -0.145,0.085 -0.012,0.057 -0.017,0.145 -0.017,0.266 l 0,1.606 C 0.515,0.906 0.48,1.053 0.411,1.166 0.342,1.278 0.253,1.365 0.14,1.426 0.027,1.49 -0.099,1.532 -0.241,1.553 -0.379,1.572 -0.517,1.583 -0.658,1.583 -0.83,1.583 -0.997,1.565 -1.154,1.528 -1.311,1.492 -1.448,1.431 -1.571,1.347 -1.691,1.266 -1.787,1.159 -1.86,1.027 -1.932,0.894 -1.973,0.731 -1.98,0.538 l 0.513,0 c 0.011,0.23 0.09,0.384 0.235,0.464 0.145,0.085 0.327,0.128 0.543,0.128 0.08,0 0.163,-0.006 0.243,-0.019 C -0.362,1.1 -0.287,1.075 -0.224,1.04 -0.155,1.002 -0.099,0.95 -0.059,0.883 -0.015,0.814 0.008,0.722 0.008,0.61 0.008,0.514 -0.021,0.439 -0.078,0.387 -0.134,0.338 -0.21,0.3 -0.308,0.272 -0.404,0.248 -0.517,0.227 -0.647,0.212 -0.771,0.199 -0.903,0.179 -1.045,0.15 -1.177,0.126 -1.309,0.097 -1.437,0.061 -1.561,0.024 -1.674,-0.031 -1.776,-0.103 c -0.095,-0.068 -0.175,-0.158 -0.235,-0.272 -0.061,-0.112 -0.09,-0.257 -0.09,-0.435 0,-0.157 0.025,-0.292 0.079,-0.403 0.055,-0.109 0.13,-0.2 0.222,-0.273 0.098,-0.068 0.208,-0.117 0.333,-0.145 0.124,-0.032 0.258,-0.049 0.397,-0.049 0.218,0 0.42,0.037 0.605,0.11 0.189,0.077 0.354,0.199 0.496,0.368 0,-0.169 0.038,-0.291 0.115,-0.368 0.08,-0.073 0.187,-0.11 0.319,-0.11 0.159,0 0.281,0.027 0.369,0.079"
               inkscape:connector-curvature="0" />
          </g>
          <g
             transform="translate(244.3306,16.3976)"
             id="g562">
            <path
               id="path564"
               style="fill:#ffffff;fill-opacity:1;fill-rule:evenodd;stroke:none"
               d="m 0,0 c -0.17,0 -0.31,0.035 -0.423,0.103 -0.112,0.073 -0.205,0.165 -0.271,0.278 -0.069,0.117 -0.117,0.245 -0.146,0.386 -0.029,0.142 -0.042,0.282 -0.042,0.423 0,0.149 0.015,0.293 0.048,0.43 0.036,0.136 0.09,0.257 0.163,0.362 0.076,0.104 0.173,0.187 0.29,0.247 0.117,0.065 0.258,0.098 0.423,0.098 0.161,0 0.298,-0.033 0.409,-0.098 C 0.564,2.164 0.656,2.079 0.725,1.97 0.796,1.865 0.85,1.746 0.882,1.613 0.914,1.481 0.93,1.345 0.93,1.208 0.93,1.064 0.911,0.918 0.876,0.773 0.844,0.629 0.79,0.498 0.718,0.381 0.646,0.268 0.549,0.176 0.428,0.103 0.312,0.035 0.168,0 0,0 m 1.437,-0.151 0,2.858 -0.482,0 0,-0.448 -0.008,0 C 0.855,2.433 0.727,2.562 0.56,2.646 0.396,2.735 0.214,2.779 0.017,2.779 -0.253,2.779 -0.48,2.726 -0.666,2.623 -0.85,2.521 -0.999,2.39 -1.111,2.229 -1.224,2.072 -1.305,1.895 -1.354,1.698 -1.402,1.505 -1.426,1.315 -1.426,1.13 c 0,-0.214 0.027,-0.416 0.085,-0.61 0.059,-0.189 0.149,-0.357 0.266,-0.502 0.116,-0.141 0.262,-0.253 0.434,-0.337 0.174,-0.085 0.377,-0.128 0.61,-0.128 0.201,0 0.391,0.044 0.568,0.134 0.181,0.092 0.317,0.235 0.404,0.428 l 0.014,0 0,-0.205 C 0.955,-0.264 0.936,-0.423 0.899,-0.567 0.867,-0.713 0.813,-0.835 0.737,-0.936 0.66,-1.041 0.562,-1.121 0.446,-1.177 0.329,-1.238 0.187,-1.268 0.017,-1.268 c -0.084,0 -0.172,0.01 -0.266,0.03 -0.091,0.016 -0.177,0.044 -0.26,0.084 -0.076,0.041 -0.141,0.093 -0.199,0.157 -0.052,0.065 -0.08,0.143 -0.084,0.237 l -0.513,0 c 0.008,-0.17 0.052,-0.314 0.132,-0.43 0.08,-0.117 0.182,-0.211 0.303,-0.283 0.124,-0.073 0.261,-0.125 0.411,-0.157 0.153,-0.033 0.302,-0.048 0.445,-0.048 0.5,0 0.868,0.126 1.101,0.38 0.233,0.253 0.35,0.636 0.35,1.147"
               inkscape:connector-curvature="0" />
          </g>
          <g
             transform="translate(248.71,20.2948)"
             id="g566">
            <path
               id="path568"
               style="fill:#ffffff;fill-opacity:1;fill-rule:evenodd;stroke:none"
               d="m 0,0 0,-4.313 0.513,0 0,1.763 c 0,0.142 0.019,0.27 0.055,0.387 0.041,0.12 0.098,0.225 0.175,0.314 0.076,0.089 0.171,0.157 0.284,0.205 0.117,0.049 0.253,0.073 0.41,0.073 0.197,0 0.352,-0.057 0.465,-0.169 0.113,-0.113 0.17,-0.265 0.17,-0.459 l 0,-2.114 0.513,0 0,2.053 c 0,0.169 -0.017,0.322 -0.054,0.46 -0.032,0.14 -0.092,0.261 -0.176,0.361 -0.084,0.102 -0.195,0.18 -0.331,0.237 -0.137,0.056 -0.31,0.084 -0.514,0.084 -0.092,0 -0.19,-0.01 -0.289,-0.03 C 1.123,-1.169 1.029,-1.201 0.936,-1.245 0.848,-1.286 0.767,-1.339 0.694,-1.408 0.622,-1.473 0.566,-1.554 0.524,-1.649 l -0.011,0 L 0.513,0 0,0 z"
               inkscape:connector-curvature="0" />
          </g>
          <g
             transform="translate(254.218,19.1048)"
             id="g570">
            <path
               id="path572"
               style="fill:#ffffff;fill-opacity:1;fill-rule:evenodd;stroke:none"
               d="m 0,0 0,-3.123 0.515,0 0,1.389 c 0,0.201 0.019,0.379 0.059,0.532 0.04,0.156 0.105,0.29 0.193,0.399 0.09,0.108 0.207,0.19 0.35,0.246 0.146,0.056 0.322,0.086 0.527,0.086 l 0,0.543 C 1.366,0.08 1.136,0.023 0.955,-0.097 0.773,-0.218 0.622,-0.406 0.496,-0.659 l -0.012,0 L 0.484,0 0,0 z"
               inkscape:connector-curvature="0" />
          </g>
          <path
             id="path574"
             style="fill:#ffffff;fill-opacity:1;fill-rule:evenodd;stroke:none"
             d="m 258.446,15.982 0.515,0 0,3.123 -0.515,0 0,-3.123 z m 0.515,4.313 -0.515,0 0,-0.628 0.515,0 0,0.628 z"
             inkscape:connector-curvature="0" />
          <g
             transform="translate(264.3617,17.5698)"
             id="g576">
            <path
               id="path578"
               style="fill:#ffffff;fill-opacity:1;fill-rule:evenodd;stroke:none"
               d="m 0,0 c 0,-0.152 -0.017,-0.302 -0.05,-0.447 -0.032,-0.145 -0.084,-0.274 -0.156,-0.386 -0.073,-0.113 -0.169,-0.204 -0.29,-0.272 -0.117,-0.069 -0.263,-0.104 -0.442,-0.104 -0.177,0 -0.327,0.033 -0.453,0.098 -0.124,0.067 -0.228,0.157 -0.308,0.265 -0.077,0.109 -0.132,0.234 -0.168,0.375 -0.037,0.144 -0.056,0.294 -0.056,0.447 0,0.145 0.017,0.288 0.05,0.428 0.036,0.142 0.092,0.266 0.169,0.375 0.076,0.113 0.175,0.203 0.296,0.272 0.12,0.069 0.268,0.104 0.44,0.104 0.166,0 0.308,-0.033 0.431,-0.098 0.124,-0.064 0.224,-0.15 0.3,-0.26 0.08,-0.108 0.14,-0.233 0.176,-0.374 C -0.021,0.286 0,0.146 0,0 m -2.416,2.725 0,-4.313 0.512,0 0,0.416 0.012,0 c 0.057,-0.092 0.124,-0.171 0.207,-0.235 0.084,-0.061 0.172,-0.109 0.265,-0.146 0.092,-0.035 0.184,-0.061 0.278,-0.078 0.095,-0.015 0.183,-0.024 0.26,-0.024 0.237,0 0.444,0.043 0.622,0.127 0.18,0.084 0.329,0.199 0.445,0.344 0.123,0.15 0.211,0.322 0.266,0.519 0.062,0.198 0.092,0.407 0.092,0.629 0,0.221 -0.03,0.43 -0.092,0.628 C 0.392,0.789 0.3,0.963 0.18,1.111 0.063,1.264 -0.086,1.386 -0.266,1.474 -0.444,1.563 -0.652,1.607 -0.895,1.607 -1.111,1.607 -1.313,1.566 -1.492,1.486 -1.674,1.409 -1.808,1.285 -1.892,1.111 l -0.012,0 0,1.614 -0.512,0 z"
               inkscape:connector-curvature="0" />
          </g>
          <g
             transform="translate(151.5551,33.0105)"
             id="g580">
            <path
               id="path582"
               style="fill:#ffffff;fill-opacity:1;fill-rule:nonzero;stroke:none"
               d="M 0,0 1.806,0 0.921,2.35 0,0 z m 0.694,2.785 0.489,0 1.797,-4.583 -0.467,0 -0.558,1.424 -2.09,0 -0.551,-1.424 -0.471,0 1.851,4.583 z"
               inkscape:connector-curvature="0" />
          </g>
          <g
             transform="translate(155.7641,35.7961)"
             id="g584">
            <path
               id="path586"
               style="fill:#ffffff;fill-opacity:1;fill-rule:nonzero;stroke:none"
               d="m 0,0 0.437,0 0,-4.211 2.569,0 0,-0.374 L 0,-4.585 0,0 z"
               inkscape:connector-curvature="0" />
          </g>
          <g
             transform="translate(163.1892,31.5833)"
             id="g588">
            <path
               id="path590"
               style="fill:#ffffff;fill-opacity:1;fill-rule:nonzero;stroke:none"
               d="M 0,0 1.505,0 C 2.153,-0.005 2.711,0.212 2.711,0.945 2.711,1.529 2.269,1.83 1.505,1.83 L 0,1.83 0,0 z m 0,2.205 1.505,0 c 0.699,0 1.034,0.344 1.034,0.775 0,0.572 -0.354,0.861 -1.034,0.861 L 0,3.841 0,2.205 z m -0.436,2.008 1.941,0 c 0.77,0 1.471,-0.269 1.471,-1.122 0,-0.482 -0.323,-0.926 -0.797,-1.029 l 0,-0.01 C 2.769,1.973 3.148,1.529 3.148,0.933 3.148,0.496 2.994,-0.372 1.505,-0.372 l -1.941,0 0,4.585 z"
               inkscape:connector-curvature="0" />
          </g>
          <g
             transform="translate(168.4983,33.0105)"
             id="g592">
            <path
               id="path594"
               style="fill:#ffffff;fill-opacity:1;fill-rule:nonzero;stroke:none"
               d="M 0,0 1.804,0 0.917,2.35 0,0 z m 0.693,2.785 0.49,0 1.796,-4.583 -0.469,0 -0.558,1.424 -2.088,0 -0.553,-1.424 -0.467,0 1.849,4.583 z"
               inkscape:connector-curvature="0" />
          </g>
          <g
             transform="translate(173.2628,33.6201)"
             id="g596">
            <path
               id="path598"
               style="fill:#ffffff;fill-opacity:1;fill-rule:nonzero;stroke:none"
               d="m 0,0 1.632,0 c 0.531,0 0.989,0.335 0.989,0.893 0,0.56 -0.335,0.911 -0.989,0.911 L 0,1.804 0,0 z m -0.435,2.175 2.098,0 c 0.757,0 1.396,-0.363 1.396,-1.19 0,-0.579 -0.304,-1.056 -0.896,-1.17 l 0,-0.014 C 2.762,-0.276 2.936,-0.687 2.967,-1.234 2.986,-1.547 2.986,-2.177 3.18,-2.408 l -0.482,0 c -0.107,0.179 -0.107,0.52 -0.124,0.713 -0.037,0.644 -0.087,1.353 -0.918,1.322 l -1.656,0 0,-2.035 -0.435,0 0,4.583 z"
               inkscape:connector-curvature="0" />
          </g>
          <path
             id="path600"
             style="fill:#ffffff;fill-opacity:1;fill-rule:nonzero;stroke:none"
             d="m 178.072,35.796 0.437,0 0,-4.585 -0.437,0 0,4.585 z"
             inkscape:connector-curvature="0" />
          <g
             transform="translate(180.7127,31.5833)"
             id="g602">
            <path
               id="path604"
               style="fill:#ffffff;fill-opacity:1;fill-rule:nonzero;stroke:none"
               d="M 0,0 0.932,0 C 2.25,-0.005 2.82,0.554 2.82,1.922 2.82,3.289 2.25,3.847 0.932,3.841 L 0,3.841 0,0 z m -0.435,4.213 1.585,0 C 2.531,4.183 3.257,3.424 3.257,1.922 3.257,0.419 2.531,-0.34 1.15,-0.372 l -1.585,0 0,4.585 z"
               inkscape:connector-curvature="0" />
          </g>
          <g
             transform="translate(189.528,32.1687)"
             id="g606">
            <path
               id="path608"
               style="fill:#ffffff;fill-opacity:1;fill-rule:nonzero;stroke:none"
               d="m 0,0 0.959,0 c 0.375,0 0.64,0.135 0.64,0.514 0,0.405 -0.283,0.539 -0.64,0.539 L 0,1.053 0,0 z m 0,1.825 0.926,0 c 0.203,0 0.486,0.109 0.486,0.436 0,0.333 -0.237,0.444 -0.486,0.444 L 0,2.705 0,1.825 z m -1.194,1.803 2.145,0 C 1.741,3.642 2.608,3.436 2.608,2.481 2.608,2.069 2.365,1.734 2.003,1.555 2.493,1.413 2.795,0.99 2.795,0.467 2.795,-0.624 1.99,-0.957 1.009,-0.957 l -2.203,0 0,4.585 z"
               inkscape:connector-curvature="0" />
          </g>
          <g
             transform="translate(195.3429,32.92)"
             id="g610">
            <path
               id="path612"
               style="fill:#ffffff;fill-opacity:1;fill-rule:nonzero;stroke:none"
               d="M 0,0 1.04,0 0.534,1.605 0.52,1.605 0,0 z m -0.078,2.877 1.214,0 1.718,-4.585 -1.249,0 -0.281,0.822 -1.598,0 -0.291,-0.822 -1.226,0 1.713,4.585 z"
               inkscape:connector-curvature="0" />
          </g>
          <g
             transform="translate(199.6966,35.7961)"
             id="g614">
            <path
               id="path616"
               style="fill:#ffffff;fill-opacity:1;fill-rule:nonzero;stroke:none"
               d="m 0,0 1.227,0 1.595,-2.824 0.013,0 0,2.824 1.122,0 0,-4.585 -1.228,0 -1.592,2.859 -0.011,0 0,-2.859 L 0,-4.585 0,0 z"
               inkscape:connector-curvature="0" />
          </g>
          <g
             transform="translate(205.5184,35.7961)"
             id="g618">
            <path
               id="path620"
               style="fill:#ffffff;fill-opacity:1;fill-rule:nonzero;stroke:none"
               d="m 0,0 1.196,0 0,-1.757 L 2.704,0 4.189,0 2.493,-1.803 4.4,-4.585 l -1.482,0 -1.236,1.929 -0.486,-0.516 0,-1.413 L 0,-4.585 0,0 z"
               inkscape:connector-curvature="0" />
          </g>
          <g
             transform="translate(163.9723,45.6465)"
             id="g622">
            <path
               id="path624"
               style="fill:#ffffff;fill-opacity:1;fill-rule:nonzero;stroke:none"
               d="m 0,0 -2.11,0 c -0.339,0 -0.508,0.106 -0.508,0.325 l 0,5.695 -2.003,-1.636 0,-4.384 -5.745,0 -0.94,0.013 c -0.275,0 -0.554,0.079 -0.816,0.242 -0.415,0.244 -0.615,0.649 -0.615,1.205 0,0.259 0.045,0.523 0.122,0.791 l 0.047,0.151 c -0.293,-0.314 -0.555,-0.651 -0.741,-1 -0.366,-0.66 -0.537,-1.194 -0.537,-1.576 0,-0.569 0.23,-1.03 0.693,-1.366 0.292,-0.222 0.585,-0.324 0.909,-0.324 l 7.222,-0.013 0.401,0.463 c 0.061,-0.314 0.353,-0.463 0.878,-0.463 L 0,-1.877 0,0 z M -7.023,3.399 C -7.318,3.317 -7.607,3.273 -7.871,3.273 c -0.723,0 -1.276,0.148 -1.665,0.464 0.265,0.206 0.618,0.309 1.049,0.309 0.262,0 0.524,-0.032 0.786,-0.114 l 0.247,0.348 c 0.124,0.174 0.184,0.289 0.184,0.349 0,0.162 -0.245,0.241 -0.741,0.241 -0.737,0 -1.339,-0.288 -1.8,-0.856 -0.263,-0.313 -0.385,-0.557 -0.385,-0.733 0,-0.357 0.245,-0.577 0.725,-0.66 -0.294,-0.242 -0.494,-0.592 -0.587,-1.019 0.417,0.357 0.911,0.612 1.448,0.777 0.292,0.08 0.693,0.151 1.218,0.186 l 0.369,0.834 z m 9.381,-5.276 0.586,0.57 0.245,-0.57 3.558,0 L 6.747,0 4.375,0 3.652,1.891 2.127,0.754 2.435,0 l -3.144,0 0,-1.877 3.067,0 z M 4.375,3.839 2.758,4.918 1.539,4.072 3.189,3.005 4.375,3.839 z M 10.074,2.668 8.641,1.184 C 8.996,0.916 9.272,0.522 9.472,0 l -3.435,0 0,-1.877 3.959,0 c 0.168,0.265 0.356,0.602 0.556,1.031 0.322,0.661 0.477,1.193 0.477,1.578 0,0.728 -0.324,1.379 -0.955,1.936 M 8.209,-3.816 9.828,-4.891 11.029,-4.046 9.381,-2.98 8.209,-3.816 z"
               inkscape:connector-curvature="0" />
          </g>
          <g
             transform="translate(188.8323,44.6452)"
             id="g626">
            <path
               id="path628"
               style="fill:#ffffff;fill-opacity:1;fill-rule:nonzero;stroke:none"
               d="M 0,0 -2.451,0 -4.898,3.225 -5.455,2.551 -3.513,0 -6.765,0 c -0.352,0 -0.584,0.01 -0.693,0.033 -0.245,0.06 -0.4,0.163 -0.463,0.338 -0.231,-0.313 -0.339,-0.57 -0.339,-0.765 0,-0.196 0.108,-0.325 0.324,-0.407 0.122,-0.045 0.34,-0.069 0.65,-0.069 l 3.773,0 0.4,0.371 L -2.867,-0.87 0,-0.87 0,0 z M 2.343,2.561 1.726,1.936 C 2.171,1.369 2.387,0.869 2.387,0.418 2.357,0.231 2.343,0.093 2.343,0 l -3.778,0 0,-0.87 3.883,0 c 0.109,0.208 0.171,0.312 0.188,0.324 0.352,0.846 0.537,1.392 0.537,1.611 0,0.558 -0.275,1.057 -0.83,1.496 m -2.418,-5.078 0.784,-0.604 0.754,0.442 0.57,-0.442 0.74,0.442 -0.804,0.625 -0.754,-0.463 -0.6,0.463 -0.69,-0.463 z m 9.533,0.022 -0.799,0.651 -0.712,-0.487 0.788,-0.603 0.723,0.439 z M 6.085,1.565 5.376,0.951 C 5.914,0.453 6.301,-0.129 6.532,-0.801 5.778,-2.226 4.821,-2.945 3.635,-2.945 c -0.415,0 -0.847,0.079 -1.281,0.244 0.88,-0.708 1.512,-1.068 1.897,-1.068 0.293,0 0.647,0.173 1.096,0.521 1.123,0.881 1.693,1.835 1.693,2.854 0,0.195 -0.032,0.381 -0.093,0.578 l 0.016,-0.023 -0.016,0.048 2.218,0 0.446,0.415 0,-0.624 c 0,-0.581 0.294,-0.87 0.865,-0.87 l 2.541,0 0,0.87 -2.02,0 c -0.274,0 -0.414,0.116 -0.414,0.336 l 0,2.319 -0.972,-0.636 0,-0.966 -3.079,0 c -0.123,0.2 -0.279,0.36 -0.447,0.512 m 11,4.513 -0.911,0.3 C 15.713,6.53 15.483,6.749 15.483,7.015 L 14.913,6.214 14.819,6.099 C 14.758,5.995 14.727,5.925 14.727,5.878 c 0,-0.127 0.154,-0.232 0.448,-0.289 L 15.79,0 l -4.205,0 0,-0.87 4.392,0 0.308,0.718 c 0.198,0.465 0.275,0.836 0.26,1.103 l -0.371,4.36 0.402,-0.093 0.509,0.86 z M 19.858,7.015 18.716,5.938 C 18.918,5.346 19.027,4.975 19.027,4.824 19.058,4.139 19.058,3.663 19.07,3.408 l 0.08,-2.11 C 19.179,0.556 19.118,-0.268 18.979,-1.16 L 18.95,-1.357 c 0.446,0.638 0.769,1.217 0.939,1.761 0.151,0.536 0.23,1.161 0.199,1.88 l -0.03,0.777 C 20.04,3.536 20.04,3.838 20.027,3.978 l -0.138,1.206 -0.031,0.242 0.308,0.292 -0.308,1.297 z"
               inkscape:connector-curvature="0" />
          </g>
          <g
             transform="translate(247.9887,58.9584)"
             id="g630">
            <path
               id="path632"
               style="fill:#ffffff;fill-opacity:1;fill-rule:nonzero;stroke:none"
               d="M 0,0 C 1.339,0.005 2.42,1.108 2.414,2.467 2.407,3.821 1.318,4.918 -0.019,4.911 -1.36,4.906 -2.439,3.801 -2.432,2.446 -2.424,1.089 -1.337,-0.006 0,0 m -25.225,3.035 c 3.361,-9.347 10.803,-15.852 10.803,-15.852 0,0 -0.419,-6.024 -10.748,-15.762 9.694,3.057 18.476,8.336 25.472,14.56 C 7.962,-8.48 13.238,0.377 15.592,7.642 -9.457,-15.223 -25.225,3.035 -25.225,3.035"
               inkscape:connector-curvature="0" />
          </g>
          <g
             transform="translate(247.9887,49.6272)"
             id="g634">
            <path
               id="path636"
               style="fill:#ffd42d;fill-opacity:1;fill-rule:nonzero;stroke:none"
               d="M 0,0 C 1.358,0.004 2.455,1.125 2.449,2.499 2.441,3.874 1.335,4.983 -0.019,4.978 -1.377,4.974 -2.474,3.852 -2.466,2.477 -2.461,1.103 -1.354,-0.008 0,0 m -20.448,3.411 c 4.865,-9.047 13.882,-13.508 13.882,-13.508 0,0 -0.875,-3.489 -15.864,-16.704 C 7.873,-17.616 13.813,-4.894 18.051,8.172 -4.441,-12.997 -20.448,3.411 -20.448,3.411"
               inkscape:connector-curvature="0" />
          </g>
        </g>
      </g>
    </g>
  </g>
</svg>
